<?xml version="1.0" encoding="utf-8"?>
<!-- Generator: Adobe Illustrator 25.2.0, SVG Export Plug-In . SVG Version: 6.00 Build 0)  -->
<svg version="1.1" id="Layer_1" xmlns="http://www.w3.org/2000/svg" xmlns:xlink="http://www.w3.org/1999/xlink" x="0px" y="0px"
	 viewBox="0 0 32 32" style="enable-background:new 0 0 32 32;" xml:space="preserve">
<style type="text/css">
	.st0{fill:#00FF25;}
	.st1{fill:#7CFF62;}
	.st2{fill:#006C0A;}
	.st3{fill:#00B41A;}
	.st4{fill:#1BC600;}
	.st5{fill:#03D321;}
	.st6{fill:#006117;}
	.st7{fill:#008620;}
	.st8{fill:#007D47;}
	.st9{fill:#89FF9C;}
	.st10{fill:#199100;}
</style>
<g id="a">
	<g transform="translate(1.488 6.767)">
		<path class="st0" d="M0,9.6l16.2,10.1L29.7,9.6L13.2,1.4L0,9.6z"/>
		<path class="st1" d="M7.3,5l7.1,3.8L17,5.9l1.2-0.6L9.9,1.5L9,1.9L7.3,5z"/>
		<path class="st2" d="M7.3,8l6.2,3.7l0.9-2.9L12,7.6l-1.4-2.1L9.3,6.1L7.3,5V8z"/>
		<path class="st3" d="M11.8,13.3l4.6,2.7v-4.2l-2.7-4.1l-1.9,1.6L11.8,13.3z"/>
		<path class="st4" d="M16.4,11.8l7-4.3l-2.6-3.9l-7.1,4.1L16.4,11.8z"/>
		<path class="st5" d="M10.6,5.4l1.6-0.7L12,7.6L10.6,5.4z"/>
		<path class="st1" d="M18.5,6.3L20,9.6l0.2-2.5L21,6.6l-1.6-0.8L18.5,6.3z"/>
		<path class="st6" d="M16.4,16l6.8-4.9V7.6l-0.9,0.6L21,6.6l-0.8,0.5L20,9.6l-3.6,2.3V16z"/>
		<path class="st7" d="M12.2,13.6v-2.9l3.5,1.9v3L12.2,13.6z"/>
		<path class="st8" d="M14.9,18.9l1.3,0.8L29.7,9.6L28.5,9L14.9,18.9z"/>
		<polygon class="st9" points="11,10.2 9.7,9.4 9.7,7.4 11,8.1 		"/>
		<polygon class="st9" points="21.4,12.4 20.1,13.4 20.1,11.3 21.4,10.3 		"/>
	</g>
</g>
<polygon class="st10" points="18.7,12.5 10.5,8.7 11.4,8.2 19.5,12 "/>
<polygon class="st10" points="21.7,13.8 20,13.1 20.9,12.6 22.5,13.4 "/>
</svg>
